<?xml version="1.0" encoding="UTF-8" standalone="no"?>
<svg width="75px" height="20px" viewBox="0 0 75 20" version="1.1" xmlns="http://www.w3.org/2000/svg" xmlns:xlink="http://www.w3.org/1999/xlink">
    <!-- Generator: Sketch 39.1 (31720) - http://www.bohemiancoding.com/sketch -->
    <title>menu-sprite</title>
    <desc>Created with Sketch.</desc>
    <defs></defs>
    <g id="Page-1" stroke="none" stroke-width="1" fill="none" fill-rule="evenodd">
        <g id="Artboard" transform="translate(-39.000000, -36.000000)" stroke="#FFFFFF" stroke-width="1.54">
            <g id="Group-2" transform="translate(40.000000, 38.000000)">
                <circle id="Oval" cx="8" cy="8" r="8"></circle>
                <polyline id="Shape" points="6.54545455 7.27272727 8 7.27272727 8 11.6363636"></polyline>
                <path d="M6.54545455,11 L9.45454545,11" id="Shape"></path>
                <path d="M7.77,4.36363636 L7.77,5.81818182" id="Shape"></path>
            </g>
            <g id="Group-3" transform="translate(59.000000, 40.000000)">
                <path d="M0,4 L16,4" id="Shape"></path>
                <path d="M5,4.55 L5,13" id="Shape"></path>
                <rect id="Rectangle-path" x="0" y="0" width="16" height="13"></rect>
            </g>
            <g id="Group-4" transform="translate(78.000000, 38.000000)">
                <circle id="Oval" cx="8" cy="8" r="8"></circle>
                <path d="M5.81818182,9.81818182 L5.81818182,9.81818182 C5.81818182,10.8363636 6.61818182,11.6363636 7.63636364,11.6363636 L8.36363636,11.6363636 C9.38181818,11.6363636 10.1818182,10.8363636 10.1818182,9.81818182 L10.1818182,9.81818182 C10.1818182,7.27272727 5.81818182,8.72727273 5.81818182,6.18181818 L5.81818182,6.18181818 C5.81818182,5.16363636 6.61818182,4.36363636 7.63636364,4.36363636 L8.36363636,4.36363636 C9.38181818,4.36363636 10.1818182,5.16363636 10.1818182,6.18181818" id="Shape"></path>
                <path d="M8,3.63636364 L8,12.3636364" id="Shape"></path>
            </g>
            <g id="Group-5" transform="translate(97.000000, 41.000000)">
                <polyline id="Shape" points="0 3.33333333 0 12 16 12 16 3.33333333"></polyline>
                <polygon id="Shape" points="16 3.33333333 16 0 0 0 0 3.33333333 8 7.33333333"></polygon>
            </g>
        </g>
    </g>
</svg>